<svg  viewBox="0 0 880 196" fill="none" xmlns="http://www.w3.org/2000/svg">
<path fill-rule="evenodd" clip-rule="evenodd" d="M154.598 39.1373C166.116 50.497 183.02 67.1695 184.864 70.7428L184.874 70.7326C197.022 89.1067 194.521 113.759 178.923 129.356L163.744 144.535C162.275 145.885 158.384 149.83 153.518 154.764C142.158 166.282 125.486 183.186 121.912 185.03C103.61 197.147 78.9271 194.717 63.2887 179.079C60.4796 176.27 56.1463 171.936 51.1356 166.924C38.3201 154.106 21.0736 136.856 13.5662 129.356C-4.53228 111.656 -4.51187 81.2058 13.5662 63.4544C16.3764 60.6442 20.713 56.3084 25.7273 51.295C38.5446 38.4802 55.7899 21.2381 63.2887 13.732C65.514 11.4965 67.9639 9.49571 70.5668 7.7808C88.941 -4.36654 113.593 -1.86562 129.191 13.732L144.37 28.911C145.72 30.3804 149.665 34.2715 154.598 39.1373ZM117.645 25.2873C106.111 13.538 86.338 13.5278 74.8439 25.2873V25.2975L65.3506 34.7908C76.3343 35.6074 86.8892 40.4867 94.6472 48.2957L131.222 84.8705C144.37 73.3764 145.319 52.777 132.825 40.4663L117.645 25.2873ZM96.2498 119.843L119.677 96.4155L96.2498 72.9885L72.8228 96.4155L96.2498 119.843ZM25.1113 75.0097C14.9851 85.1359 13.3519 101.152 21.2425 113.075H21.2527C22.825 115.693 27.4621 120.233 31.0692 123.766C32.4972 125.164 33.7637 126.404 34.6148 127.304C35.4314 116.321 40.3108 105.766 48.1198 98.008C53.9279 92.2071 65.5106 80.6214 74.8109 71.3187C78.7015 67.4272 82.1926 63.9352 84.6945 61.4332C73.4046 48.357 52.4173 47.3872 40.2904 59.8306L25.1113 75.0097ZM74.8439 167.544C86.3788 179.293 106.141 179.303 117.645 167.544L127.139 158.051C117.931 157.336 108.979 153.845 101.782 148.047C98.8426 145.679 61.2675 107.961 61.2675 107.961C48.1912 119.25 47.2215 140.238 59.6649 152.365L74.8439 167.544ZM164.08 121.105C165.733 119.442 166.974 118.195 167.368 117.811V117.801C177.494 107.675 179.127 91.6587 171.237 79.7359C169.657 77.1112 165.036 72.5856 161.43 69.0547C160.001 67.6557 158.732 66.4128 157.875 65.5062C157.16 74.7034 153.679 83.6557 147.891 90.842C145.472 93.8636 107.785 131.388 107.785 131.388C118.38 143.545 137.326 145.434 149.841 135.103C150.801 134.456 159.221 125.989 164.08 121.105Z" fill="#7856FF"/>
<path fill-rule="evenodd" clip-rule="evenodd" d="M329.932 66.9866C320.826 76.0001 316.365 86.6061 316.365 98.8045C316.365 111.003 320.836 121.517 329.932 130.53C339.037 139.544 349.745 144.056 362.056 144.056C374.366 144.056 384.982 139.544 394.088 130.53C403.183 121.517 407.736 111.003 407.736 98.8045C407.736 86.6061 403.183 76.0001 394.088 66.9866C384.982 57.9731 374.377 53.4612 362.056 53.4612C349.735 53.4612 339.037 57.9731 329.932 66.9866ZM381.318 78.2152C386.667 83.8704 389.433 90.679 389.433 98.8045C389.433 106.94 386.667 113.749 381.318 119.312C375.877 124.977 369.548 127.713 362.045 127.713C354.543 127.713 348.122 124.967 342.681 119.312C337.24 113.739 334.566 106.93 334.566 98.8045C334.566 90.679 337.24 83.8704 342.681 78.2152C348.122 72.652 354.635 69.8244 362.045 69.8244C369.456 69.8244 375.877 72.652 381.318 78.2152Z" fill="#7856FF"/>
<path d="M238.649 67.0779C229.547 76.0877 225.086 86.5967 225.083 98.7886C225.086 110.98 229.547 121.49 238.649 130.499C247.754 139.513 258.462 144.025 270.773 144.025C274.958 144.025 279.154 143.32 283.349 141.993C287.453 140.666 290.842 139.258 293.516 137.665C296.099 136.073 298.6 134.307 301.009 132.275C303.336 130.244 304.939 128.835 305.653 127.947C306.072 127.433 306.427 127.007 306.721 126.654C306.93 126.404 307.108 126.19 307.256 126.008L295.394 114.259L292.628 117.617C290.852 119.74 287.902 122.037 283.798 124.334C279.695 126.631 275.418 127.784 270.773 127.784C263.27 127.784 256.85 124.956 251.409 119.393C245.968 113.738 243.294 106.94 243.294 98.8039C243.294 90.6683 245.968 83.8596 251.409 78.2963C256.85 72.6412 263.28 69.9055 270.773 69.9055C275.407 69.9055 279.695 71.0488 283.798 73.4374C287.902 75.7342 290.495 77.5818 291.74 79.0007C292.985 80.4094 293.884 81.5629 294.506 82.5326L306.368 70.7834L302.53 66.6288C299.947 63.7093 295.752 60.8001 289.862 57.8806C283.982 54.9714 277.551 53.5525 270.773 53.5525C258.452 53.5525 247.744 58.0644 238.649 67.0779Z" fill="#7856FF"/>
<path d="M442.44 55.3287L442.349 64.4341L443.512 63.2806C444.053 62.7498 445.207 61.8617 446.901 60.6266C448.688 59.3914 450.474 58.3298 452.434 57.3601C454.394 56.3903 456.803 55.5022 459.835 54.706C462.866 53.9098 465.816 53.5525 468.848 53.5525C479.464 53.5525 488.029 57.0028 494.633 63.8931C501.238 70.7834 504.535 79.9806 504.535 91.638V142.279H486.242V91.638C486.242 85.3602 484.19 80.1542 480.179 75.9996C476.167 71.9368 471.165 69.8136 465.275 69.8136C458.314 69.8136 452.699 72.1104 448.596 76.5304C444.492 80.9504 442.44 87.2282 442.44 95.1801V142.197H424.148V55.3287H442.44Z" fill="#7856FF"/>
<path d="M551.203 142.198H569.404L605.09 55.3293H585.91L560.309 118.689L534.697 55.3293H515.516L551.203 142.198Z" fill="#7856FF"/>
<path fill-rule="evenodd" clip-rule="evenodd" d="M610.542 98.8045C610.542 86.6061 615.003 76.0001 624.108 66.9866C633.213 57.9731 643.911 53.4612 656.232 53.4612C668.553 53.4612 679.159 57.9731 688.264 66.9866C697.359 76.0001 701.912 86.6061 701.912 98.8045C701.912 111.003 697.359 121.517 688.264 130.53C679.159 139.544 668.543 144.056 656.232 144.056C643.921 144.056 633.213 139.544 624.108 130.53C615.003 121.517 610.542 111.003 610.542 98.8045ZM683.609 98.8045C683.609 90.679 680.843 83.8704 675.494 78.2152C670.053 72.652 663.633 69.8244 656.222 69.8244C648.811 69.8244 642.298 72.652 636.858 78.2152C631.417 83.8704 628.742 90.679 628.742 98.8045C628.742 106.93 631.417 113.739 636.858 119.312C642.298 124.967 648.719 127.713 656.222 127.713C663.724 127.713 670.053 124.977 675.494 119.312C680.843 113.749 683.609 106.94 683.609 98.8045Z" fill="#7856FF"/>
<path d="M762.13 77.0612L774.084 65.312H774.073L772.91 63.985C772.232 63.3171 771.151 62.4841 769.674 61.3466L769.429 61.1574C767.826 59.9222 766.04 58.779 763.988 57.6255C761.855 56.472 759.17 55.5022 755.873 54.706C752.576 53.9098 749.187 53.4709 745.706 53.4709C736.784 53.4709 729.384 56.0331 723.494 61.1574C717.604 66.2919 714.664 72.2125 714.664 78.8374C714.664 83.6963 715.736 87.8509 717.961 91.3012C720.105 94.7412 722.871 97.3034 726.26 98.8958C729.659 100.488 733.222 101.989 737.06 103.316C740.898 104.643 744.471 105.786 747.86 106.674C751.167 107.562 753.923 108.889 756.159 110.563C758.292 112.248 759.456 114.371 759.456 116.841C759.456 120.2 758.21 122.843 755.801 124.793C753.3 126.743 749.646 127.713 744.828 127.713C740.724 127.713 736.805 126.733 732.966 124.793C729.128 122.854 726.638 121.169 725.474 119.934C724.31 118.699 723.422 117.719 722.881 116.841L711.02 128.59L712.357 130.275C713.153 131.336 714.49 132.663 716.368 134.164C718.247 135.664 720.472 137.165 722.973 138.584C725.474 140.084 728.587 141.32 732.517 142.381C736.437 143.443 740.541 143.974 744.828 143.974C754.556 143.974 762.498 141.32 768.561 136.022C774.625 130.714 777.748 124.354 777.748 116.841C777.748 112.064 776.595 107.92 774.451 104.469C772.216 101.111 769.449 98.5487 766.06 96.8644C762.661 95.272 759.099 93.7715 755.26 92.4444C751.422 91.1174 747.849 89.9742 744.552 89.0861C741.163 88.198 738.397 86.9628 736.253 85.1969C734.028 83.5228 732.956 81.3996 732.956 78.8374C732.956 76.4487 734.028 74.3255 736.345 72.5596C738.662 70.7936 741.786 69.8239 745.716 69.8239C748.574 69.8239 751.514 70.5282 754.372 71.8552C757.22 73.1822 759.19 74.2439 760.078 75.1217C760.617 75.6543 761.092 76.0929 761.483 76.4535L761.484 76.4548C761.736 76.6879 761.954 76.889 762.13 77.0612Z" fill="#7856FF"/>
<path fill-rule="evenodd" clip-rule="evenodd" d="M788.63 98.8045C788.63 86.6061 793.09 76.0001 802.196 66.9866C811.301 57.9731 821.999 53.4612 834.32 53.4612C846.641 53.4612 857.247 57.9731 866.352 66.9866C875.447 76.0001 880 86.6061 880 98.8045C880 111.003 875.447 121.517 866.352 130.53C857.247 139.544 846.631 144.056 834.32 144.056C822.009 144.056 811.301 139.544 802.196 130.53C793.09 121.517 788.63 111.003 788.63 98.8045ZM861.708 98.8045C861.708 90.679 858.941 83.8704 853.592 78.2152C848.152 72.652 841.731 69.8244 834.32 69.8244C826.909 69.8244 820.396 72.652 814.956 78.2152C809.515 83.8704 806.84 90.679 806.84 98.8045C806.84 106.93 809.515 113.739 814.956 119.312C820.396 124.967 826.817 127.713 834.32 127.713C841.823 127.713 848.152 124.977 853.592 119.312C858.941 113.749 861.708 106.94 861.708 98.8045Z" fill="#7856FF"/>
</svg>
